<svg width="48" height="21" viewBox="0 0 48 21" fill="none" xmlns="http://www.w3.org/2000/svg">

<g clip-path="url(#clip0_48_769)">
<path d="M37.9406 12.7561H35.4179C36.8956 12.5662 38.1596 12.0278 39.2215 11.1515C40.5974 10.0107 41.2721 8.6 41.2721 6.91717C41.2721 5.23434 40.5974 3.82274 39.2215 2.71009C37.8731 1.56929 36.2 1 34.177 1H24.1414L18.1034 14.7102L11.9103 1H7V20H8.753V4.45637L15.7739 20H17.7152L24.502 4.58909V20H28.6298V12.7561H33.4344L37.4418 20H42L37.9406 12.7561ZM32.7998 10.9924H28.6298V2.84191H32.7998C35.0244 2.84191 36.499 4.44744 36.499 6.91717C36.499 9.3869 35.024 10.9924 32.7998 10.9924Z" fill="#090714"/>
</g>
<defs>
<clipPath id="clip0_48_769">

<rect width="48" height="21" rx="5" fill="white"/>
</clipPath>
</defs>
</svg>
