<svg width="176" height="176" viewBox="0 0 176 176" fill="none" xmlns="http://www.w3.org/2000/svg">
<path d="M25.9987 42.1584L77.2557 12.4542C82.8967 9.18193 89.8424 9.18193 95.4834 12.4542L146.74 42.1584C152.363 45.4213 155.826 51.4298 155.826 57.9461V117.411C155.826 123.918 152.363 129.936 146.74 133.199L95.4834 162.903C89.8424 166.175 82.8967 166.175 77.2557 162.903L25.9987 133.199C20.3765 129.936 16.913 123.927 16.913 117.411V57.9461C16.913 51.4392 20.3765 45.4213 25.9987 42.1584Z" fill="#EFEEFF"/>
<path d="M54.4034 42.6609H57.4403C57.4265 42.5 57.4181 42.3364 57.4181 42.17C57.4181 39.1941 59.8288 36.7813 62.802 36.7813C63.4559 36.7813 64.0821 36.8978 64.6613 37.1113C65.9165 35.5388 67.8478 34.5293 70.0146 34.5293C73.7997 34.5293 76.8643 37.5994 76.8643 41.3851C76.8643 41.8205 76.8227 42.2449 76.7451 42.6581H77.5293C79.0699 42.6581 80.3196 43.9089 80.3168 45.4509C80.3168 46.9929 79.0671 48.2437 77.5265 48.2437H54.4006C52.86 48.2437 51.6104 46.9929 51.6104 45.4509C51.6104 43.9089 52.86 42.6581 54.4006 42.6581L54.4034 42.6609Z" fill="white"/>
<path d="M14.9671 77.1649H17.1059C17.0962 77.0501 17.0903 76.9333 17.0903 76.8145C17.0903 74.6898 18.7881 72.9672 20.882 72.9672C21.3426 72.9672 21.7836 73.0504 22.1915 73.2028C23.0755 72.0801 24.4357 71.3594 25.9618 71.3594C28.6275 71.3594 30.7858 73.5513 30.7858 76.2541C30.7858 76.565 30.7566 76.8679 30.7019 77.1629H31.2542C32.3392 77.1629 33.2193 78.056 33.2174 79.1569C33.2174 80.2578 32.3373 81.1508 31.2522 81.1508H14.9651C13.8801 81.1508 13 80.2578 13 79.1569C13 78.056 13.8801 77.1629 14.9651 77.1629L14.9671 77.1649Z" fill="white"/>
<path d="M141.217 98.8277H143.77C143.759 98.6975 143.752 98.5651 143.752 98.4305C143.752 96.0226 145.778 94.0702 148.277 94.0702C148.827 94.0702 149.353 94.1645 149.84 94.3373C150.895 93.0649 152.519 92.248 154.34 92.248C157.522 92.248 160.098 94.7322 160.098 97.7954C160.098 98.1477 160.063 98.4911 159.998 98.8254H160.657C161.952 98.8254 163.002 99.8375 163 101.085C163 102.333 161.95 103.345 160.655 103.345H141.215C139.92 103.345 138.87 102.333 138.87 101.085C138.87 99.8375 139.92 98.8254 141.215 98.8254L141.217 98.8277Z" fill="white"/>
<path d="M73.6334 75.0928H46.5202V138.853H73.6334V75.0928Z" fill="#EFEEFF"/>
<path d="M73.6334 85.7095H46.5202V97.3327H73.6334V85.7095Z" fill="white"/>
<path d="M73.6334 109.017H46.5202V120.64H73.6334V109.017Z" fill="white"/>
<path d="M73.6334 75.0928H46.5202V138.853H73.6334V75.0928Z" stroke="#766D8E" stroke-width="0.8" stroke-linejoin="round"/>
<path d="M95.3239 87.9395H73.6334V138.853H95.3239V87.9395Z" fill="#D8D7FF"/>
<path d="M95.3239 114.411H73.6334V126.034H95.3239V114.411Z" fill="white"/>
<path d="M95.3239 87.9395H73.6334V138.853H95.3239V87.9395Z" stroke="#766D8E" stroke-width="0.8" stroke-linejoin="round"/>
<path d="M84.4537 92.6011V136.218" stroke="#766D8E" stroke-width="0.8" stroke-miterlimit="10" stroke-linecap="round"/>
<path d="M78.3551 93.0811H81.8437" stroke="#766D8E" stroke-width="0.8" stroke-miterlimit="10"/>
<path d="M78.3522 96.9585H81.8436" stroke="#766D8E" stroke-width="0.8" stroke-miterlimit="10"/>
<path d="M78.355 100.835H81.8436" stroke="#766D8E" stroke-width="0.8" stroke-miterlimit="10"/>
<path d="M78.3522 104.715H81.8436" stroke="#766D8E" stroke-width="0.8" stroke-miterlimit="10"/>
<path d="M78.355 108.593H81.8436" stroke="#766D8E" stroke-width="0.8" stroke-miterlimit="10"/>
<path d="M78.355 112.47H81.8436" stroke="#766D8E" stroke-width="0.8" stroke-miterlimit="10"/>
<path d="M78.355 116.35H81.8436" stroke="#766D8E" stroke-width="0.8" stroke-miterlimit="10"/>
<path d="M78.355 120.227H81.8436" stroke="#766D8E" stroke-width="0.8" stroke-miterlimit="10"/>
<path d="M78.355 124.104H81.8436" stroke="#766D8E" stroke-width="0.8" stroke-miterlimit="10"/>
<path d="M78.355 127.984H81.8436" stroke="#766D8E" stroke-width="0.8" stroke-miterlimit="10"/>
<path d="M78.355 131.861H81.8436" stroke="#766D8E" stroke-width="0.8" stroke-miterlimit="10"/>
<path d="M78.355 135.739H81.8436" stroke="#766D8E" stroke-width="0.8" stroke-miterlimit="10"/>
<path d="M87.2745 93.0811H90.7659" stroke="#766D8E" stroke-width="0.8" stroke-miterlimit="10"/>
<path d="M87.2745 96.9585H90.7631" stroke="#766D8E" stroke-width="0.8" stroke-miterlimit="10"/>
<path d="M87.2745 100.835H90.7659" stroke="#766D8E" stroke-width="0.8" stroke-miterlimit="10"/>
<path d="M87.2745 104.715H90.7631" stroke="#766D8E" stroke-width="0.8" stroke-miterlimit="10"/>
<path d="M87.2745 108.593H90.7659" stroke="#766D8E" stroke-width="0.8" stroke-miterlimit="10"/>
<path d="M87.2745 112.47H90.7659" stroke="#766D8E" stroke-width="0.8" stroke-miterlimit="10"/>
<path d="M87.2745 116.35H90.7659" stroke="#766D8E" stroke-width="0.8" stroke-miterlimit="10"/>
<path d="M87.2745 120.227H90.7659" stroke="#766D8E" stroke-width="0.8" stroke-miterlimit="10"/>
<path d="M87.2745 124.104H90.7659" stroke="#766D8E" stroke-width="0.8" stroke-miterlimit="10"/>
<path d="M87.2745 127.984H90.7659" stroke="#766D8E" stroke-width="0.8" stroke-miterlimit="10"/>
<path d="M87.2745 131.861H90.7659" stroke="#766D8E" stroke-width="0.8" stroke-miterlimit="10"/>
<path d="M87.2745 135.739H90.7659" stroke="#766D8E" stroke-width="0.8" stroke-miterlimit="10"/>
<path d="M46.5202 103.767H24.8325V138.853H46.5202V103.767Z" fill="#D8D7FF"/>
<path d="M46.5202 114.411H24.8325V126.034H46.5202V114.411Z" fill="white"/>
<path d="M46.5202 103.767H24.8325V138.853H46.5202V103.767Z" stroke="#766D8E" stroke-width="0.8" stroke-linejoin="round"/>
<path d="M35.6528 108.052V136.218" stroke="#766D8E" stroke-width="0.8" stroke-miterlimit="10" stroke-linecap="round"/>
<path d="M29.5513 108.593H33.0426" stroke="#766D8E" stroke-width="0.8" stroke-miterlimit="10"/>
<path d="M29.5513 112.47H33.0426" stroke="#766D8E" stroke-width="0.8" stroke-miterlimit="10"/>
<path d="M29.5513 116.35H33.0426" stroke="#766D8E" stroke-width="0.8" stroke-miterlimit="10"/>
<path d="M29.5513 120.227H33.0426" stroke="#766D8E" stroke-width="0.8" stroke-miterlimit="10"/>
<path d="M29.5513 124.104H33.0426" stroke="#766D8E" stroke-width="0.8" stroke-miterlimit="10"/>
<path d="M29.5513 127.984H33.0426" stroke="#766D8E" stroke-width="0.8" stroke-miterlimit="10"/>
<path d="M29.5513 131.861H33.0426" stroke="#766D8E" stroke-width="0.8" stroke-miterlimit="10"/>
<path d="M29.5513 135.738H33.0426" stroke="#766D8E" stroke-width="0.8" stroke-miterlimit="10"/>
<path d="M38.4735 108.593H41.9621" stroke="#766D8E" stroke-width="0.8" stroke-miterlimit="10"/>
<path d="M38.4735 112.47H41.9621" stroke="#766D8E" stroke-width="0.8" stroke-miterlimit="10"/>
<path d="M38.4735 116.35H41.9621" stroke="#766D8E" stroke-width="0.8" stroke-miterlimit="10"/>
<path d="M38.4735 120.227H41.9621" stroke="#766D8E" stroke-width="0.8" stroke-miterlimit="10"/>
<path d="M38.4735 124.104H41.9621" stroke="#766D8E" stroke-width="0.8" stroke-miterlimit="10"/>
<path d="M38.4735 127.984H41.9621" stroke="#766D8E" stroke-width="0.8" stroke-miterlimit="10"/>
<path d="M38.4735 131.861H41.9621" stroke="#766D8E" stroke-width="0.8" stroke-miterlimit="10"/>
<path d="M38.4735 135.738H41.9621" stroke="#766D8E" stroke-width="0.8" stroke-miterlimit="10"/>
<path d="M64.664 134.781V79.4053" stroke="#766D8E" stroke-width="0.8" stroke-miterlimit="10" stroke-linecap="round"/>
<path d="M55.4868 79.4053V134.781" stroke="#766D8E" stroke-width="0.8" stroke-miterlimit="10" stroke-linecap="round"/>
<path d="M49.3881 83.7622H52.8766" stroke="#766D8E" stroke-width="0.8" stroke-miterlimit="10"/>
<path d="M49.3881 87.6426H52.8794" stroke="#766D8E" stroke-width="0.8" stroke-miterlimit="10"/>
<path d="M49.3881 91.5195H52.8766" stroke="#766D8E" stroke-width="0.8" stroke-miterlimit="10"/>
<path d="M49.3881 95.3994H52.8766" stroke="#766D8E" stroke-width="0.8" stroke-miterlimit="10"/>
<path d="M49.3881 99.2769H52.8794" stroke="#766D8E" stroke-width="0.8" stroke-miterlimit="10"/>
<path d="M49.3881 103.154H52.8794" stroke="#766D8E" stroke-width="0.8" stroke-miterlimit="10"/>
<path d="M49.3881 107.034H52.8766" stroke="#766D8E" stroke-width="0.8" stroke-miterlimit="10"/>
<path d="M49.3881 110.911H52.8794" stroke="#766D8E" stroke-width="0.8" stroke-miterlimit="10"/>
<path d="M49.3881 114.788H52.8794" stroke="#766D8E" stroke-width="0.8" stroke-miterlimit="10"/>
<path d="M49.3881 118.668H52.8794" stroke="#766D8E" stroke-width="0.8" stroke-miterlimit="10"/>
<path d="M49.3881 122.545H52.8794" stroke="#766D8E" stroke-width="0.8" stroke-miterlimit="10"/>
<path d="M49.3881 126.273H52.8794" stroke="#766D8E" stroke-width="0.8" stroke-miterlimit="10"/>
<path d="M49.3881 130.153H52.8794" stroke="#766D8E" stroke-width="0.8" stroke-miterlimit="10"/>
<path d="M49.3881 134.03H52.8794" stroke="#766D8E" stroke-width="0.8" stroke-miterlimit="10"/>
<path d="M58.3076 126.273H61.7989" stroke="#766D8E" stroke-width="0.8" stroke-miterlimit="10"/>
<path d="M58.3076 130.153H61.7989" stroke="#766D8E" stroke-width="0.8" stroke-miterlimit="10"/>
<path d="M67.4571 126.273H70.9484" stroke="#766D8E" stroke-width="0.8" stroke-miterlimit="10"/>
<path d="M67.4571 130.153H70.9484" stroke="#766D8E" stroke-width="0.8" stroke-miterlimit="10"/>
<path d="M67.4571 134.03H70.9484" stroke="#766D8E" stroke-width="0.8" stroke-miterlimit="10"/>
<path d="M58.3076 79.8853H61.7989" stroke="#766D8E" stroke-width="0.8" stroke-miterlimit="10"/>
<path d="M49.3244 79.8853H52.8129" stroke="#766D8E" stroke-width="0.8" stroke-miterlimit="10"/>
<path d="M58.3076 83.7622H61.7989" stroke="#766D8E" stroke-width="0.8" stroke-miterlimit="10"/>
<path d="M58.3076 87.6426H61.7989" stroke="#766D8E" stroke-width="0.8" stroke-miterlimit="10"/>
<path d="M58.3076 91.5195H61.7989" stroke="#766D8E" stroke-width="0.8" stroke-miterlimit="10"/>
<path d="M58.3076 95.3994H61.7989" stroke="#766D8E" stroke-width="0.8" stroke-miterlimit="10"/>
<path d="M58.3076 99.2769H61.7989" stroke="#766D8E" stroke-width="0.8" stroke-miterlimit="10"/>
<path d="M58.3076 103.154H61.7989" stroke="#766D8E" stroke-width="0.8" stroke-miterlimit="10"/>
<path d="M58.3076 107.034H61.7989" stroke="#766D8E" stroke-width="0.8" stroke-miterlimit="10"/>
<path d="M58.3076 110.911H61.7989" stroke="#766D8E" stroke-width="0.8" stroke-miterlimit="10"/>
<path d="M58.3076 114.788H61.7989" stroke="#766D8E" stroke-width="0.8" stroke-miterlimit="10"/>
<path d="M58.3076 118.668H61.7989" stroke="#766D8E" stroke-width="0.8" stroke-miterlimit="10"/>
<path d="M58.3076 122.545H61.7989" stroke="#766D8E" stroke-width="0.8" stroke-miterlimit="10"/>
<path d="M67.5347 79.8853H71.0232" stroke="#766D8E" stroke-width="0.8" stroke-miterlimit="10"/>
<path d="M67.5347 83.7622H71.0232" stroke="#766D8E" stroke-width="0.8" stroke-miterlimit="10"/>
<path d="M67.5347 87.6426H71.0232" stroke="#766D8E" stroke-width="0.8" stroke-miterlimit="10"/>
<path d="M67.5347 91.5195H71.0232" stroke="#766D8E" stroke-width="0.8" stroke-miterlimit="10"/>
<path d="M67.5347 95.3994H71.0232" stroke="#766D8E" stroke-width="0.8" stroke-miterlimit="10"/>
<path d="M67.5347 99.2769H71.0232" stroke="#766D8E" stroke-width="0.8" stroke-miterlimit="10"/>
<path d="M67.5347 103.154H71.0232" stroke="#766D8E" stroke-width="0.8" stroke-miterlimit="10"/>
<path d="M67.5347 107.034H71.0232" stroke="#766D8E" stroke-width="0.8" stroke-miterlimit="10"/>
<path d="M67.5347 110.911H71.0232" stroke="#766D8E" stroke-width="0.8" stroke-miterlimit="10"/>
<path d="M67.5347 114.788H71.0232" stroke="#766D8E" stroke-width="0.8" stroke-miterlimit="10"/>
<path d="M67.5347 118.668H71.0232" stroke="#766D8E" stroke-width="0.8" stroke-miterlimit="10"/>
<path d="M67.5347 122.545H71.0232" stroke="#766D8E" stroke-width="0.8" stroke-miterlimit="10"/>
<path d="M61.7962 132.505H58.3076V138.856H61.7962V132.505Z" fill="white" stroke="#766D8E" stroke-width="0.8" stroke-miterlimit="10"/>
<path d="M20.0083 138.853H132.662" stroke="#766D8E" stroke-width="0.8" stroke-linecap="round" stroke-linejoin="round"/>
<path d="M74.6503 71.4155H45.5227V75.9777H74.6503V71.4155Z" fill="white" stroke="#766D8E" stroke-width="0.8" stroke-linejoin="round"/>
<path d="M46.5368 99.8091H23.7407V104.371H46.5368V99.8091Z" fill="white" stroke="#766D8E" stroke-width="0.8" stroke-linejoin="round"/>
<path d="M96.4351 83.2466H73.639V87.8088H96.4351V83.2466Z" fill="white" stroke="#766D8E" stroke-width="0.8" stroke-linejoin="round"/>
<path d="M120.759 62.1428C120.759 55.9009 125.814 50.8418 132.05 50.8418C138.286 50.8418 143.341 55.9028 143.341 62.1428C143.341 68.3829 138.286 73.4439 132.05 73.4439C125.814 73.4439 120.759 68.3847 120.759 62.1428Z" fill="white"/>
<path d="M137.5 40.4385H126.177V44.9578H137.5V40.4385Z" fill="#D8D7FF" stroke="#766D8E" stroke-width="0.8" stroke-linejoin="round"/>
<path d="M135.702 44.9575H128.187V136.59H135.702V44.9575Z" stroke="#766D8E" stroke-width="0.8" stroke-miterlimit="10"/>
<path d="M125.119 136.592H138.981" stroke="#766D8E" stroke-width="0.8" stroke-miterlimit="10"/>
<path d="M105.62 40.4385H148.613" stroke="#766D8E" stroke-width="0.8" stroke-linecap="round" stroke-linejoin="round"/>
<path d="M115.667 40.4385H111.433V55.3328H115.667V40.4385Z" stroke="#766D8E" stroke-width="0.8" stroke-linejoin="round"/>
<path d="M110.796 55.3325H116.302L113.551 59.535L110.796 55.3325Z" fill="#EFEEFF" stroke="#766D8E" stroke-width="0.8" stroke-linejoin="round"/>
<path d="M115.574 62.5662C115.574 63.6853 114.667 64.5925 113.549 64.5925C112.431 64.5925 111.527 63.6853 111.527 62.5662C111.527 61.4472 112.433 60.5399 113.549 60.5399V59.5371" stroke="#766D8E" stroke-width="0.8" stroke-linecap="round" stroke-linejoin="round"/>
<path d="M107.032 40.4384L131.837 31.4092L145.755 40.4384H107.032Z" stroke="#766D8E" stroke-width="0.8" stroke-linecap="round" stroke-linejoin="round"/>
<path d="M131.837 31.4092V40.4384" stroke="#766D8E" stroke-width="0.8" stroke-linecap="round" stroke-linejoin="round"/>
<path d="M135.62 45.4507L128.481 50.4142L135.62 55.3796L128.481 60.345L135.62 65.3086L128.481 70.2758L135.62 75.245" stroke="#766D8E" stroke-width="0.8" stroke-linejoin="round"/>
<path d="M135.62 75.2451L128.481 80.2068L135.62 85.1722L128.481 90.1376L135.62 95.103L128.481 100.07L135.62 105.038" stroke="#766D8E" stroke-width="0.8" stroke-linejoin="round"/>
<path d="M135.62 105.056L128.481 110.018L135.62 114.983L128.481 119.949L135.62 124.914L128.481 129.881L135.62 134.849" stroke="#766D8E" stroke-width="0.8" stroke-linejoin="round"/>
<path d="M126.177 44.9578L130.692 40.4385" stroke="#766D8E" stroke-width="0.8" stroke-linejoin="round"/>
<path d="M129.582 44.9578L134.097 40.4385" stroke="#766D8E" stroke-width="0.8" stroke-linejoin="round"/>
<path d="M132.987 44.9578L137.502 40.4385" stroke="#766D8E" stroke-width="0.8" stroke-linejoin="round"/>
<path d="M122.31 72.4727H104.79V76.3265H122.31V72.4727Z" fill="white" stroke="#766D8E" stroke-width="0.8" stroke-linecap="round" stroke-linejoin="round"/>
<path d="M122.31 76.3281H104.79V80.182H122.31V76.3281Z" fill="#D8D7FF" stroke="#766D8E" stroke-width="0.8" stroke-linejoin="round"/>
<path d="M122.31 80.1821H104.79V84.036H122.31V80.1821Z" fill="white" stroke="#766D8E" stroke-width="0.8" stroke-linecap="round" stroke-linejoin="round"/>
<path d="M122.31 84.0396H104.79V87.8934H122.31V84.0396Z" fill="#EFEEFF" stroke="#766D8E" stroke-width="0.8" stroke-miterlimit="10"/>
<path d="M118.096 72.4727H109.004V87.8937H118.096V72.4727Z" stroke="#766D8E" stroke-width="0.8" stroke-linecap="round" stroke-linejoin="round"/>
<path d="M109.004 72.4725L113.549 64.5923L118.094 72.4725H109.004Z" stroke="#766D8E" stroke-width="0.8" stroke-linecap="round" stroke-linejoin="round"/>
<path d="M138.983 134.8H125.119V138.759H138.983V134.8Z" fill="#D8D7FF" stroke="#766D8E" stroke-width="0.8" stroke-linecap="round" stroke-linejoin="round"/>
</svg>
